<?xml version="1.0" standalone="no"?>
<!DOCTYPE svg PUBLIC "-//W3C//DTD SVG 20010904//EN"
 "http://www.w3.org/TR/2001/REC-SVG-20010904/DTD/svg10.dtd">
<svg version="1.0" xmlns="http://www.w3.org/2000/svg"
 width="280.000000pt" height="375.000000pt" viewBox="0 0 280.000000 375.000000"
 preserveAspectRatio="xMidYMid meet">

<g transform="translate(0.000000,375.000000) scale(0.100000,-0.100000)"
fill="#000000" stroke="none">
<path d="M1257 3743 c-2 -4 -37 -103 -76 -219 -83 -245 -103 -351 -81 -417 19
-52 56 -70 98 -46 43 24 48 55 22 139 -28 91 -25 127 30 328 40 148 47 212 23
219 -6 2 -13 0 -16 -4z"/>
<path d="M460 3403 c1 -224 15 -384 38 -429 27 -53 43 -66 158 -127 109 -59
137 -90 137 -157 0 -88 -78 -150 -187 -150 -34 0 -108 11 -166 25 -58 14 -126
25 -151 25 -80 0 -134 -52 -232 -224 -56 -98 -67 -148 -43 -194 14 -28 22 -32
57 -32 62 0 170 64 131 78 -8 2 -29 17 -47 33 l-33 29 39 72 c22 40 48 81 57
91 47 52 111 59 249 26 105 -25 173 -21 250 17 98 47 149 145 141 269 -3 58
-8 69 -48 118 -25 30 -73 90 -108 132 -106 130 -149 235 -161 394 -8 106 -19
131 -57 131 l-24 0 0 -127z"/>
<path d="M1710 3319 c-86 -56 -156 -115 -196 -168 -64 -83 -39 -168 90 -297
102 -102 172 -138 322 -166 183 -34 476 -107 534 -134 79 -36 155 -97 186
-149 53 -91 26 -204 -73 -303 -68 -68 -133 -97 -253 -112 -219 -28 -425 -131
-481 -242 -29 -57 -34 -122 -20 -272 15 -160 27 -195 91 -270 67 -78 96 -129
115 -205 25 -94 11 -150 -74 -316 -78 -150 -84 -180 -51 -245 22 -43 26 -75
10 -85 -17 -10 -50 15 -55 43 -9 40 -34 88 -61 113 -44 42 -34 73 56 165 94
96 100 119 50 197 -18 28 -30 61 -30 80 0 41 -21 72 -44 64 -24 -10 -20 -66
10 -141 31 -74 28 -100 -15 -142 -42 -41 -118 -81 -130 -69 -7 7 -5 40 5 95
23 127 5 220 -42 220 -18 0 -23 -26 -26 -132 -3 -74 -6 -91 -24 -109 -28 -27
-51 -20 -108 36 -68 66 -69 89 -6 232 85 192 103 255 104 358 0 80 -3 97 -27
147 -51 105 -143 159 -304 180 -156 20 -379 -22 -489 -92 l-44 -27 43 -12 c46
-13 88 -7 191 29 97 33 248 21 363 -30 164 -72 174 -192 49 -575 -49 -151 -80
-203 -136 -233 -81 -43 -152 -18 -301 107 -123 105 -166 126 -249 126 -134 0
-266 -105 -353 -280 -56 -112 -72 -170 -72 -265 0 -73 3 -90 23 -118 34 -47
74 -64 151 -64 85 0 111 7 366 98 290 104 371 145 473 238 149 135 212 122
212 -42 0 -127 -54 -281 -106 -304 -20 -10 -39 -8 -99 10 -127 37 -220 25
-286 -38 -74 -70 -41 -132 92 -175 124 -39 237 -48 432 -36 95 6 271 13 392
17 237 6 306 14 402 45 83 27 137 68 167 127 14 27 41 61 60 76 53 40 50 72
-15 130 -76 68 -145 87 -313 84 -149 -3 -187 7 -206 53 -18 42 -5 92 37 141
74 89 110 207 93 310 -12 76 -37 128 -95 198 -104 124 -137 252 -99 380 46
155 146 226 359 255 164 22 223 50 330 158 61 61 91 101 119 158 86 175 47
359 -96 455 -66 44 -215 89 -417 124 -245 43 -388 94 -502 180 -73 55 -109
111 -109 169 0 59 24 98 111 182 43 41 69 74 69 88 0 32 -29 26 -100 -20z
m-949 -2416 c23 -9 81 -48 128 -86 112 -90 153 -113 225 -126 65 -12 86 -24
86 -52 0 -25 -40 -51 -176 -112 -225 -102 -359 -137 -523 -137 -122 0 -126 4
-119 120 6 108 39 171 147 284 126 130 150 142 232 109z m937 -393 c26 -24 27
-43 7 -100 -31 -89 -20 -105 105 -146 79 -26 97 -28 246 -29 176 0 198 -6 192
-54 -4 -34 -46 -57 -144 -78 -67 -15 -132 -18 -419 -18 -300 0 -348 2 -407 19
-37 10 -79 29 -94 43 -25 23 -25 25 -10 42 27 29 71 33 211 15 137 -17 209
-10 221 21 3 7 -11 44 -30 81 -49 91 -50 153 -5 195 38 36 94 40 127 9z m637
-105 c36 -14 86 -57 96 -82 12 -32 -2 -58 -40 -71 -27 -9 -39 -6 -105 29 -71
37 -79 39 -166 39 -85 0 -91 1 -99 23 -11 28 10 53 52 63 95 20 207 20 262 -1z"/>
<path d="M1655 2580 c-47 -18 -85 -92 -85 -167 0 -94 55 -122 114 -59 88 92
65 261 -29 226z"/>
<path d="M654 2141 c-61 -45 -142 -135 -254 -285 -102 -136 -103 -139 -89
-165 14 -23 21 -26 67 -25 59 2 89 23 224 156 90 88 139 177 146 265 7 86 -25
105 -94 54z"/>
</g>
</svg>
